solid unnamed
facet normal -1 -0 -0
    outer loop
        vertex -40 46 20
        vertex -40 46 0
        vertex -40 40 20
    endloop
endfacet
facet normal -1 0 0
    outer loop
        vertex -40 40 20
        vertex -40 46 0
        vertex -40 40 0
    endloop
endfacet
facet normal 0 -1 0
    outer loop
        vertex -40 40 20
        vertex -40 40 0
        vertex -3 40 20
    endloop
endfacet
facet normal 0 -1 -0
    outer loop
        vertex -3 40 20
        vertex -40 40 0
        vertex -3 40 0
    endloop
endfacet
facet normal -1 -0 -0
    outer loop
        vertex -3 40 20
        vertex -3 40 0
        vertex -3 -0 20
    endloop
endfacet
facet normal -1 0 0
    outer loop
        vertex -3 -0 20
        vertex -3 40 0
        vertex -3 -0 0
    endloop
endfacet
facet normal 0 -1 0
    outer loop
        vertex -3 -0 20
        vertex -3 -0 0
        vertex 3 -0 20
    endloop
endfacet
facet normal 0 -1 -0
    outer loop
        vertex 3 -0 20
        vertex -3 -0 0
        vertex 3 -0 0
    endloop
endfacet
facet normal 1 -0 0
    outer loop
        vertex 3 -0 20
        vertex 3 -0 0
        vertex 3 40 20
    endloop
endfacet
facet normal 1 0 0
    outer loop
        vertex 3 40 20
        vertex 3 -0 0
        vertex 3 40 0
    endloop
endfacet
facet normal 0 -1 0
    outer loop
        vertex 3 40 20
        vertex 3 40 0
        vertex 40 40 20
    endloop
endfacet
facet normal 0 -1 -0
    outer loop
        vertex 40 40 20
        vertex 3 40 0
        vertex 40 40 0
    endloop
endfacet
facet normal 1 -0 0
    outer loop
        vertex 40 40 20
        vertex 40 40 0
        vertex 40 46 20
    endloop
endfacet
facet normal 1 0 0
    outer loop
        vertex 40 46 20
        vertex 40 40 0
        vertex 40 46 0
    endloop
endfacet
facet normal 0 1 0
    outer loop
        vertex 0 46 20
        vertex 40 46 0
        vertex -40 46 20
    endloop
endfacet
facet normal 0 1 0
    outer loop
        vertex -40 46 20
        vertex 40 46 0
        vertex 0 46 0
    endloop
endfacet
facet normal 0 1 0
    outer loop
        vertex -40 46 20
        vertex 0 46 0
        vertex -40 46 0
    endloop
endfacet
facet normal 0 1 0
    outer loop
        vertex 40 46 20
        vertex 40 46 0
        vertex 0 46 20
    endloop
endfacet
facet normal 0 -0 -1
    outer loop
        vertex 0 46 0
        vertex 3 40 0
        vertex -3 40 0
    endloop
endfacet
facet normal 0 -0 -1
    outer loop
        vertex 40 46 0
        vertex 40 40 0
        vertex 3 40 0
    endloop
endfacet
facet normal -0 -0 -1
    outer loop
        vertex 3 40 0
        vertex 3 -0 0
        vertex -3 40 0
    endloop
endfacet
facet normal 0 0 -1
    outer loop
        vertex 3 -0 0
        vertex -3 -0 0
        vertex -3 40 0
    endloop
endfacet
facet normal 0 0 -1
    outer loop
        vertex 0 46 0
        vertex 40 46 0
        vertex 3 40 0
    endloop
endfacet
facet normal 0 0 -1
    outer loop
        vertex -40 46 0
        vertex -3 40 0
        vertex -40 40 0
    endloop
endfacet
facet normal 0 0 -1
    outer loop
        vertex -3 40 0
        vertex -40 46 0
        vertex 0 46 0
    endloop
endfacet
facet normal 0 0 1
    outer loop
        vertex 0 46 20
        vertex -3 40 20
        vertex 3 40 20
    endloop
endfacet
facet normal 0 0 1
    outer loop
        vertex 40 46 20
        vertex 3 40 20
        vertex 40 40 20
    endloop
endfacet
facet normal 0 0 1
    outer loop
        vertex 3 40 20
        vertex -3 40 20
        vertex 3 -0 20
    endloop
endfacet
facet normal 0 0 1
    outer loop
        vertex 3 -0 20
        vertex -3 40 20
        vertex -3 -0 20
    endloop
endfacet
facet normal -0 0 1
    outer loop
        vertex 0 46 20
        vertex 3 40 20
        vertex 40 46 20
    endloop
endfacet
facet normal 0 0 1
    outer loop
        vertex -40 46 20
        vertex -40 40 20
        vertex -3 40 20
    endloop
endfacet
facet normal 0 -0 1
    outer loop
        vertex -3 40 20
        vertex 0 46 20
        vertex -40 46 20
    endloop
endfacet
endsolid unnamed
