solid unnamed
facet normal 0 -1 0
    outer loop
        vertex -30 -20 8
        vertex -30 -20 3.9989998
        vertex 30 -20 8
    endloop
endfacet
facet normal 0 -1 -0
    outer loop
        vertex 30 -20 8
        vertex -30 -20 3.9989998
        vertex 30 -20 3.9989998
    endloop
endfacet
facet normal 0.99999994 -0 0
    outer loop
        vertex 30 -20 8
        vertex 30 -20 3.9989998
        vertex 30 20 8
    endloop
endfacet
facet normal 0.99999994 0 0
    outer loop
        vertex 30 20 8
        vertex 30 -20 3.9989998
        vertex 30 20 3.9989998
    endloop
endfacet
facet normal 0 1 0
    outer loop
        vertex 30 20 8
        vertex 30 20 3.9989998
        vertex -30 20 8
    endloop
endfacet
facet normal 0 1 0
    outer loop
        vertex -30 20 8
        vertex 30 20 3.9989998
        vertex -30 20 3.9989998
    endloop
endfacet
facet normal -0.99999994 -0 -0
    outer loop
        vertex -30 20 8
        vertex -30 20 3.9989998
        vertex -30 -20 8
    endloop
endfacet
facet normal -0.99999994 0 0
    outer loop
        vertex -30 -20 8
        vertex -30 20 3.9989998
        vertex -30 -20 3.9989998
    endloop
endfacet
facet normal 0 0 -1
    outer loop
        vertex -30 20 3.9989998
        vertex 30 20 3.9989998
        vertex -30 -20 3.9989998
    endloop
endfacet
facet normal 0 -0 -1
    outer loop
        vertex 30 20 3.9989998
        vertex 30 -20 3.9989998
        vertex -30 -20 3.9989998
    endloop
endfacet
facet normal -0 0 1
    outer loop
        vertex -30 20 8
        vertex -30 -20 8
        vertex 30 20 8
    endloop
endfacet
facet normal 0 0 1
    outer loop
        vertex 30 20 8
        vertex -30 -20 8
        vertex 30 -20 8
    endloop
endfacet
facet normal 0 -1 0
    outer loop
        vertex -40 -30 8
        vertex -40 -30 0
        vertex 40 -30 8
    endloop
endfacet
facet normal 0 -1 -0
    outer loop
        vertex 40 -30 8
        vertex -40 -30 0
        vertex 40 -30 0
    endloop
endfacet
facet normal 1 -0 0
    outer loop
        vertex 40 -30 8
        vertex 40 -30 0
        vertex 40 30 8
    endloop
endfacet
facet normal 1 0 0
    outer loop
        vertex 40 30 8
        vertex 40 -30 0
        vertex 40 30 0
    endloop
endfacet
facet normal 0 1 0
    outer loop
        vertex 40 30 8
        vertex 40 30 0
        vertex -40 30 8
    endloop
endfacet
facet normal 0 1 0
    outer loop
        vertex -40 30 8
        vertex 40 30 0
        vertex -40 30 0
    endloop
endfacet
facet normal -1 -0 -0
    outer loop
        vertex -40 30 8
        vertex -40 30 0
        vertex -40 -30 8
    endloop
endfacet
facet normal -1 0 0
    outer loop
        vertex -40 -30 8
        vertex -40 30 0
        vertex -40 -30 0
    endloop
endfacet
facet normal 0 0 -1
    outer loop
        vertex -40 30 0
        vertex 40 30 0
        vertex -40 -30 0
    endloop
endfacet
facet normal 0 -0 -1
    outer loop
        vertex 40 30 0
        vertex 40 -30 0
        vertex -40 -30 0
    endloop
endfacet
facet normal 0 0 1
    outer loop
        vertex 30 -20 8
        vertex -30 -20 8
        vertex 40 -30 8
    endloop
endfacet
facet normal -0 0 1
    outer loop
        vertex 30 20 8
        vertex 40 -30 8
        vertex 40 30 8
    endloop
endfacet
facet normal 0 0 1
    outer loop
        vertex 30 20 8
        vertex 30 -20 8
        vertex 40 -30 8
    endloop
endfacet
facet normal 0 -0 1
    outer loop
        vertex -30 20 8
        vertex 40 30 8
        vertex -40 30 8
    endloop
endfacet
facet normal 0 0 1
    outer loop
        vertex -30 -20 8
        vertex -40 30 8
        vertex -40 -30 8
    endloop
endfacet
facet normal 0 -0 1
    outer loop
        vertex -30 -20 8
        vertex -30 20 8
        vertex -40 30 8
    endloop
endfacet
facet normal 0 0 1
    outer loop
        vertex -30 -20 8
        vertex -40 -30 8
        vertex 40 -30 8
    endloop
endfacet
facet normal 0 0 1
    outer loop
        vertex 40 30 8
        vertex -30 20 8
        vertex 30 20 8
    endloop
endfacet
facet normal -0 1 0
    outer loop
        vertex -30 -20 8
        vertex 30 -20 8
        vertex -30 -20 3.9989998
    endloop
endfacet
facet normal 0 1 0
    outer loop
        vertex 30 -20 8
        vertex 30 -20 3.9989998
        vertex -30 -20 3.9989998
    endloop
endfacet
facet normal -0.99999994 0 0
    outer loop
        vertex 30 -20 8
        vertex 30 20 8
        vertex 30 -20 3.9989998
    endloop
endfacet
facet normal -0.99999994 0 -0
    outer loop
        vertex 30 20 8
        vertex 30 20 3.9989998
        vertex 30 -20 3.9989998
    endloop
endfacet
facet normal -0 -1 -0
    outer loop
        vertex 30 20 8
        vertex -30 20 8
        vertex 30 20 3.9989998
    endloop
endfacet
facet normal 0 -1 0
    outer loop
        vertex -30 20 8
        vertex -30 20 3.9989998
        vertex 30 20 3.9989998
    endloop
endfacet
facet normal 0.99999994 0 0
    outer loop
        vertex -30 20 8
        vertex -30 -20 8
        vertex -30 20 3.9989998
    endloop
endfacet
facet normal 0.99999994 0 0
    outer loop
        vertex -30 -20 8
        vertex -30 -20 3.9989998
        vertex -30 20 3.9989998
    endloop
endfacet
facet normal -0 0 1
    outer loop
        vertex -30 20 3.9989998
        vertex -30 -20 3.9989998
        vertex 30 20 3.9989998
    endloop
endfacet
facet normal 0 0 1
    outer loop
        vertex 30 20 3.9989998
        vertex -30 -20 3.9989998
        vertex 30 -20 3.9989998
    endloop
endfacet
endsolid unnamed
