solid unnamed
facet normal 0 -1 0
    outer loop
        vertex 0 -0 5
        vertex 0 -0 0
        vertex 60 -0 5
    endloop
endfacet
facet normal 0 -1 -0
    outer loop
        vertex 60 -0 5
        vertex 0 -0 0
        vertex 60 -0 0
    endloop
endfacet
facet normal 1 -0 0
    outer loop
        vertex 60 -0 5
        vertex 60 -0 0
        vertex 60 20 5
    endloop
endfacet
facet normal 1 0 0
    outer loop
        vertex 60 20 5
        vertex 60 -0 0
        vertex 60 20 0
    endloop
endfacet
facet normal 0 1 0
    outer loop
        vertex 60 20 5
        vertex 60 20 0
        vertex 20 20 5
    endloop
endfacet
facet normal 0 1 0
    outer loop
        vertex 20 20 5
        vertex 60 20 0
        vertex 20 20 0
    endloop
endfacet
facet normal 1 -0 0
    outer loop
        vertex 20 20 5
        vertex 20 20 0
        vertex 20 40 5
    endloop
endfacet
facet normal 1 0 0
    outer loop
        vertex 20 40 5
        vertex 20 20 0
        vertex 20 40 0
    endloop
endfacet
facet normal 0 1 0
    outer loop
        vertex 20 40 5
        vertex 20 40 0
        vertex 0 40 5
    endloop
endfacet
facet normal 0 1 0
    outer loop
        vertex 0 40 5
        vertex 20 40 0
        vertex 0 40 0
    endloop
endfacet
facet normal -1 -0 -0
    outer loop
        vertex 0 40 5
        vertex 0 40 0
        vertex 0 -0 5
    endloop
endfacet
facet normal -1 0 0
    outer loop
        vertex 0 -0 5
        vertex 0 40 0
        vertex 0 -0 0
    endloop
endfacet
facet normal 0 0 -1
    outer loop
        vertex 0 40 0
        vertex 20 40 0
        vertex 20 20 0
    endloop
endfacet
facet normal -0 0 -1
    outer loop
        vertex 20 20 0
        vertex 0 -0 0
        vertex 0 40 0
    endloop
endfacet
facet normal -0 -0 -1
    outer loop
        vertex 60 20 0
        vertex 60 -0 0
        vertex 20 20 0
    endloop
endfacet
facet normal 0 0 -1
    outer loop
        vertex 60 -0 0
        vertex 0 -0 0
        vertex 20 20 0
    endloop
endfacet
facet normal -0 0 1
    outer loop
        vertex 0 40 5
        vertex 20 20 5
        vertex 20 40 5
    endloop
endfacet
facet normal 0 0 1
    outer loop
        vertex 20 20 5
        vertex 0 40 5
        vertex 0 -0 5
    endloop
endfacet
facet normal 0 0 1
    outer loop
        vertex 60 20 5
        vertex 20 20 5
        vertex 60 -0 5
    endloop
endfacet
facet normal 0 0 1
    outer loop
        vertex 60 -0 5
        vertex 20 20 5
        vertex 0 -0 5
    endloop
endfacet
endsolid unnamed
