solid unnamed
facet normal 0 -1 0
    outer loop
        vertex -30 -25 40
        vertex -30 -25 0
        vertex 30 -25 40
    endloop
endfacet
facet normal 0 -1 -0
    outer loop
        vertex 30 -25 40
        vertex -30 -25 0
        vertex 30 -25 0
    endloop
endfacet
facet normal 1 -0 0
    outer loop
        vertex 30 -25 40
        vertex 30 -25 0
        vertex 30 25 40
    endloop
endfacet
facet normal 1 0 0
    outer loop
        vertex 30 25 40
        vertex 30 -25 0
        vertex 30 25 0
    endloop
endfacet
facet normal 0 1 0
    outer loop
        vertex 30 25 40
        vertex 30 25 0
        vertex -30 25 40
    endloop
endfacet
facet normal 0 1 0
    outer loop
        vertex -30 25 40
        vertex 30 25 0
        vertex -30 25 0
    endloop
endfacet
facet normal -1 -0 -0
    outer loop
        vertex -30 25 40
        vertex -30 25 0
        vertex -30 -25 40
    endloop
endfacet
facet normal -1 0 0
    outer loop
        vertex -30 -25 40
        vertex -30 25 0
        vertex -30 -25 0
    endloop
endfacet
facet normal 0 0 -1
    outer loop
        vertex -30 25 0
        vertex 30 25 0
        vertex -30 -25 0
    endloop
endfacet
facet normal 0 -0 -1
    outer loop
        vertex 30 25 0
        vertex 30 -25 0
        vertex -30 -25 0
    endloop
endfacet
facet normal 0 0 1
    outer loop
        vertex 27 -22 40
        vertex -27 -22 40
        vertex 30 -25 40
    endloop
endfacet
facet normal -0 0 1
    outer loop
        vertex 27 22 40
        vertex 30 -25 40
        vertex 30 25 40
    endloop
endfacet
facet normal 0 0 1
    outer loop
        vertex 27 22 40
        vertex 27 -22 40
        vertex 30 -25 40
    endloop
endfacet
facet normal 0 -0 1
    outer loop
        vertex -27 22 40
        vertex 30 25 40
        vertex -30 25 40
    endloop
endfacet
facet normal 0 0 1
    outer loop
        vertex -27 -22 40
        vertex -30 25 40
        vertex -30 -25 40
    endloop
endfacet
facet normal 0 -0 1
    outer loop
        vertex -27 -22 40
        vertex -27 22 40
        vertex -30 25 40
    endloop
endfacet
facet normal 0 0 1
    outer loop
        vertex -27 -22 40
        vertex -30 -25 40
        vertex 30 -25 40
    endloop
endfacet
facet normal 0 0 1
    outer loop
        vertex 30 25 40
        vertex -27 22 40
        vertex 27 22 40
    endloop
endfacet
facet normal -0 1 0
    outer loop
        vertex -27 -22 40
        vertex 27 -22 40
        vertex -27 -22 3
    endloop
endfacet
facet normal 0 1 0
    outer loop
        vertex 27 -22 40
        vertex 27 -22 3
        vertex -27 -22 3
    endloop
endfacet
facet normal -1 0 0
    outer loop
        vertex 27 -22 40
        vertex 27 22 40
        vertex 27 -22 3
    endloop
endfacet
facet normal -1 0 -0
    outer loop
        vertex 27 22 40
        vertex 27 22 3
        vertex 27 -22 3
    endloop
endfacet
facet normal -0 -1 -0
    outer loop
        vertex 27 22 40
        vertex -27 22 40
        vertex 27 22 3
    endloop
endfacet
facet normal 0 -1 0
    outer loop
        vertex -27 22 40
        vertex -27 22 3
        vertex 27 22 3
    endloop
endfacet
facet normal 1 0 0
    outer loop
        vertex -27 22 40
        vertex -27 -22 40
        vertex -27 22 3
    endloop
endfacet
facet normal 1 0 0
    outer loop
        vertex -27 -22 40
        vertex -27 -22 3
        vertex -27 22 3
    endloop
endfacet
facet normal -0 0 1
    outer loop
        vertex -27 22 3
        vertex -27 -22 3
        vertex 27 22 3
    endloop
endfacet
facet normal 0 0 1
    outer loop
        vertex 27 22 3
        vertex -27 -22 3
        vertex 27 -22 3
    endloop
endfacet
endsolid unnamed
